<svg width="60" height="60" viewBox="0 0 60 60" fill="none" xmlns="http://www.w3.org/2000/svg">
<path d="M60 28.0612V26.2246C49.6028 26.2246 35.1355 7.54112 33.3674 5.20417V3.36737H26.6327V5.20276C25.8008 6.29671 22.174 10.9703 17.4925 15.5968C10.5582 22.4492 4.50949 26.0715 0 26.0715V27.9082C1.25156 27.9082 2.57918 27.6819 3.97957 27.233V33.9796H0V35.8162H60V33.9796H55.4081V27.1719C57.0353 27.7637 58.5673 28.0612 60 28.0612ZM9.48984 33.9796H5.81637V26.5335C6.99457 26.018 8.21953 25.3573 9.48984 24.553V33.9796ZM15 33.9796H11.3265V23.3124C12.5148 22.4612 13.7396 21.4924 15 20.4066V33.9796ZM20.5102 33.9796H16.8367V18.7656C17.4771 18.173 18.1257 17.5529 18.7832 16.9032C19.3765 16.3169 19.9533 15.7297 20.5102 15.1487V33.9796ZM26.6326 33.9796H22.347V13.1798C24.1162 11.2332 25.5934 9.46358 26.6326 8.17487V33.9796ZM31.5306 33.9796H28.4694V5.20405H31.5306V33.9796ZM37.0409 33.9796H33.3674V8.18975C34.2845 9.33514 35.5424 10.8572 37.0409 12.546V33.9796ZM42.551 33.9796H38.8775V14.5635C39.6197 15.3575 40.4014 16.1682 41.2144 16.9774C41.664 17.4248 42.1093 17.8584 42.551 18.2789V33.9796ZM48.0612 33.9796H44.3877V19.9699C45.6472 21.0905 46.8721 22.0951 48.0612 22.9841V33.9796ZM53.5714 33.9796H49.898V24.2838C51.1669 25.1294 52.3917 25.8336 53.5714 26.3959V33.9796Z" fill="white"/>
<path d="M60 40.7136V38.877H0V40.7136H7.04086V48.6728H0V50.5095H60V48.6728H52.9591V40.7136H60ZM11.9388 48.6728H8.87754V40.7136H11.9387L11.9388 48.6728ZM26.6326 48.6728H13.7755V40.7136H26.6326V48.6728ZM31.5306 48.6728H28.4694V40.7136H31.5306V48.6728ZM46.2245 48.6728H33.3674V40.7136H46.2245V48.6728ZM51.1225 48.6728H48.0613V40.7136H51.1225V48.6728Z" fill="white"/>
<path d="M29.3878 54.796H23.2654V56.6326H29.3878V54.796Z" fill="white"/>
<path d="M33.6735 54.796H31.2245V56.6326H33.6735V54.796Z" fill="white"/>
<path d="M52.0407 53.5712H45.9183V55.408H52.0407V53.5712Z" fill="white"/>
<path d="M44.0817 53.5712H41.6327V55.408H44.0817V53.5712Z" fill="white"/>
<path d="M15.3061 53.5712H9.18365V55.408H15.3061V53.5712Z" fill="white"/>
<path d="M7.34706 53.5712H4.89807V55.408H7.34706V53.5712Z" fill="white"/>
</svg>
