<svg width="100" height="100" viewBox="0 0 100 100" fill="none" xmlns="http://www.w3.org/2000/svg">
<mask id="mask0_1_105" style="mask-type:luminance" maskUnits="userSpaceOnUse" x="0" y="0" width="100" height="100">
<path d="M0 0H100V100H0V0Z" fill="white"/>
</mask>
<g mask="url(#mask0_1_105)">
<path d="M47.8271 2.4455C58.3752 2.4455 68.6568 6.30194 76.778 13.3048C76.9854 13.4826 77.2458 13.5823 77.5146 13.5823H87.947C88.3677 14.4411 89.2237 15.0313 90.2123 15.0313C91.6181 15.0313 92.7574 13.8408 92.7574 12.3716C92.7574 10.9037 91.6181 9.71321 90.2123 9.71321C89.2237 9.71321 88.3677 10.3021 87.947 11.1622H77.927C73.8169 7.67906 69.2247 4.95383 64.272 3.05966C59.0118 1.04695 53.4791 0.0267181 47.8271 0.0267181C41.3698 0.0267181 35.1053 1.34709 29.2085 3.95378C23.5131 6.47093 18.3976 10.0751 14.0055 14.663C9.61219 19.2534 6.16408 24.5979 3.75523 30.5478C1.26078 36.7095 -0.00393295 43.2546 -0.00393295 50.0002C-0.00393295 56.7471 1.26078 63.2922 3.75523 69.4539C6.16408 75.4038 9.61219 80.7483 14.0055 85.3387C18.3976 89.9266 23.5131 93.5308 29.2085 96.048C35.1053 98.6546 41.3698 99.975 47.8271 99.975C53.314 99.975 58.6947 99.0128 63.8198 97.1136C68.646 95.3241 73.1454 92.7451 77.1987 89.4449H85.8636C86.2663 90.3604 87.1512 90.996 88.1772 90.996C89.5818 90.996 90.7223 89.8055 90.7223 88.3376C90.7223 86.8697 89.5818 85.678 88.1772 85.678C87.2284 85.678 86.4001 86.2202 85.9637 87.0261H76.7985C76.5381 87.0261 76.2837 87.1181 76.0787 87.2884C67.9696 94.005 58.2004 97.5562 47.8271 97.5562C22.7295 97.5562 2.31088 76.2222 2.31088 50.0002C2.31088 23.7795 22.7295 2.4455 47.8271 2.4455ZM97.3967 24.6307C98.8302 24.6307 99.9924 23.4163 99.9924 21.9194C99.9924 20.4225 98.8302 19.208 97.3967 19.208C96.4214 19.208 95.5714 19.773 95.1277 20.6053H57.5928C57.5614 20.57 57.5373 20.5259 57.5264 20.4754L56.3859 15.3667C56.0833 14.0148 55.3442 12.7953 54.3038 11.9327C53.2621 11.0702 51.9576 10.5947 50.629 10.5947H44.9131C43.5845 10.5947 42.2788 11.0702 41.2383 11.9327C40.1979 12.7953 39.4588 14.0148 39.1562 15.3667L38.0157 20.4754C37.994 20.5738 37.9277 20.6482 37.8348 20.6835C36.9053 21.029 35.9818 21.4288 35.092 21.8715C35.0016 21.9156 34.904 21.9118 34.8232 21.8588L30.5576 19.0882C29.4292 18.3555 28.0813 18.039 26.7611 18.1979C25.4409 18.3568 24.1967 18.9861 23.2575 19.9659L19.2151 24.1894C18.2759 25.1705 17.6743 26.4707 17.5223 27.8503C17.3704 29.23 17.6731 30.6386 18.3747 31.8177L21.0259 36.2732C21.0766 36.3577 21.0802 36.4611 21.038 36.5557C20.6148 37.4851 20.2326 38.4498 19.8999 39.4222C19.8673 39.5193 19.795 39.5874 19.7021 39.6101L14.8133 40.8005C13.5184 41.1171 12.3514 41.8889 11.5255 42.9772C10.7009 44.0643 10.2451 45.4275 10.2451 46.816V53.3194C10.2451 54.3737 10.5912 55.4103 11.2181 56.2351C11.845 57.0611 12.7312 57.6488 13.7138 57.8884L18.8244 59.1331C19.4803 59.2933 20.0096 59.7876 20.2362 60.4547C20.5642 61.4144 20.9427 62.3678 21.3599 63.2859C21.6516 63.9265 21.6131 64.6681 21.2562 65.2671L18.4856 69.9243C17.9528 70.8197 17.7237 71.8891 17.8394 72.9358C17.954 73.9851 18.4109 74.9725 19.1246 75.7165L23.348 80.1304C24.0617 80.8757 25.0069 81.3524 26.0088 81.4735C27.0119 81.5933 28.0355 81.3536 28.8927 80.7975L33.3487 77.902C33.9226 77.53 34.6327 77.4884 35.2464 77.7948C36.1253 78.2299 37.0367 78.6259 37.9554 78.9677C38.5944 79.206 39.067 79.7571 39.2201 80.4444L40.4125 85.7826C40.6416 86.8092 41.2034 87.7361 41.9943 88.3906C42.784 89.0451 43.775 89.407 44.7841 89.407H50.758C51.7659 89.407 52.7582 89.0451 53.5491 88.3906C54.3388 87.7361 54.9006 86.8092 55.1296 85.7826L56.322 80.4444C56.4751 79.7571 56.9477 79.206 57.5867 78.9677C58.5054 78.6259 59.4169 78.2299 60.2958 77.7948C60.9107 77.4884 61.6196 77.53 62.1934 77.902L66.6507 80.7975C67.5067 81.3536 68.5315 81.5933 69.5333 81.4735C70.5352 81.3524 71.4804 80.8757 72.1942 80.1304L76.4175 75.7165C77.1312 74.9725 77.5882 73.9851 77.7039 72.9358C77.8184 71.8891 77.5894 70.8197 77.0565 69.9243L75.4904 67.2924H93.605C94.0475 68.126 94.8974 68.6897 95.874 68.6897C97.3075 68.6897 98.4685 67.4765 98.4685 65.9796C98.4685 64.4827 97.3075 63.2682 95.874 63.2682C94.8974 63.2682 94.0475 63.8332 93.605 64.6655H73.178C72.4835 64.6655 71.9205 65.2532 71.9205 65.9796C71.9205 66.3579 72.0748 66.6984 72.3196 66.938L74.9213 71.3103C75.4084 72.13 75.2938 73.178 74.6404 73.8589L70.4159 78.2728C69.7636 78.955 68.7605 79.0761 67.9769 78.5666L63.5196 75.6724C62.2164 74.8249 60.608 74.7329 59.2167 75.4227C58.4138 75.8212 57.5819 76.1806 56.7428 76.4934C55.2948 77.0331 54.2218 78.2867 53.8734 79.8479L52.681 85.1861C52.4712 86.1244 51.6803 86.7802 50.758 86.7802H44.7841C43.8618 86.7802 43.0697 86.1244 42.8599 85.1861L41.6688 79.8479C41.3203 78.2867 40.2473 77.0331 38.8006 76.4934C37.9602 76.1806 37.1283 75.8212 36.3254 75.4227C34.9341 74.7329 33.3258 74.8249 32.0225 75.6724L27.5653 78.5666C26.7816 79.0761 25.7785 78.955 25.1263 78.2728L20.9017 73.8589C20.2495 73.178 20.1337 72.13 20.6208 71.3103L23.3914 66.6543C24.2016 65.2923 24.2908 63.6113 23.6301 62.1572C23.2491 61.3186 22.9043 60.4484 22.6041 59.5732C22.0881 58.0599 20.8885 56.9401 19.3947 56.5756L14.2852 55.3296C13.387 55.1115 12.7589 54.2854 12.7589 53.3194V51.5123L12.7685 49.8804C12.7625 49.854 12.7589 49.83 12.7589 49.8022V46.816C12.7589 46.0177 13.0205 45.2345 13.4955 44.609C13.9693 43.9848 14.6409 43.5409 15.3836 43.3593L20.2736 42.1676C21.2019 41.9406 21.947 41.2444 22.2677 40.3037C22.5715 39.4146 22.9212 38.5318 23.3082 37.6831C23.7193 36.7776 23.665 35.7334 23.1611 34.8872L20.5099 30.4305C20.106 29.7533 19.9324 28.9437 20.0204 28.1505C20.1072 27.3585 20.4532 26.6107 20.9934 26.0469L25.0346 21.8235C25.5748 21.2598 26.2897 20.8991 27.0481 20.8071C27.8064 20.715 28.5816 20.8979 29.2302 21.3191L33.4958 24.0897C34.3048 24.6156 35.3054 24.6724 36.1711 24.2423C36.9849 23.84 37.8288 23.473 38.6788 23.1565C39.5806 22.8211 40.2473 22.0417 40.4631 21.0719L41.6049 15.9632C41.7785 15.1876 42.2029 14.4865 42.8008 13.9896C43.3988 13.494 44.1499 13.2216 44.9131 13.2216H50.629C51.3922 13.2216 52.1433 13.494 52.7401 13.9896C53.3393 14.4865 53.7637 15.1864 53.9373 15.9632L55.0778 21.0719C55.2924 22.0291 55.9447 22.7996 56.8272 23.1426C56.9682 23.1994 57.1226 23.2322 57.2841 23.2322H95.1277C95.5714 24.0658 96.4214 24.6307 97.3967 24.6307ZM29.7077 50.7884C29.7077 61.1963 37.8107 69.662 47.7705 69.662C57.7314 69.662 65.8333 61.1963 65.8333 50.7884C65.8333 50.0646 66.3975 49.4769 67.0907 49.4769H89.6361C90.0785 48.6433 90.9285 48.0796 91.9051 48.0796C93.3373 48.0796 94.4996 49.2928 94.4996 50.7884C94.4996 52.2866 93.3373 53.4998 91.9051 53.4998C90.9285 53.4998 90.0785 52.9361 89.6361 52.1025H68.3108C68.171 54.5415 67.6405 56.9085 66.7302 59.1583C65.6946 61.7184 64.2093 64.0173 62.32 65.991C60.432 67.9658 58.2305 69.5157 55.7807 70.5977C53.2428 71.7201 50.5482 72.2889 47.7705 72.2889C44.9939 72.2889 42.2993 71.7201 39.7614 70.5977C37.3104 69.5157 35.1101 67.9658 33.2209 65.991C31.3317 64.0173 29.8487 61.7184 28.8119 59.1583C27.7389 56.5062 27.1939 53.6915 27.1939 50.7884C27.1939 47.8879 27.7389 45.0719 28.8119 42.421C29.8487 39.861 31.3317 37.562 33.2209 35.5884C35.1101 33.6135 37.3104 32.0636 39.7614 30.9804C42.2993 29.8592 44.9939 29.2905 47.7705 29.2905C50.5916 29.2905 53.3248 29.8756 55.8952 31.0321C58.1763 32.0573 60.2355 33.4862 62.0247 35.2845H81.9152C82.3577 34.4509 83.2076 33.8872 84.1854 33.8872C85.6177 33.8872 86.7799 35.1004 86.7799 36.5973C86.7799 38.0955 85.6177 39.3087 84.1854 39.3087C83.2076 39.3087 82.3577 38.7437 81.9152 37.9114H61.4882C61.071 37.9114 60.7009 37.6982 60.473 37.3716C57.0695 33.8506 52.5713 31.9174 47.7705 31.9174C37.8107 31.9174 29.7077 40.3831 29.7077 50.7884Z" fill="#2677F1"/>
</g>
</svg>
