<svg width="100" height="100" viewBox="0 0 100 100" fill="none" xmlns="http://www.w3.org/2000/svg">
<mask id="mask0_1_61" style="mask-type:luminance" maskUnits="userSpaceOnUse" x="0" y="0" width="100" height="100">
<path d="M0 0H100V100H0V0Z" fill="white"/>
</mask>
<g mask="url(#mask0_1_61)">
<path d="M98.4412 56.362H91.4277V1.62266C91.4277 0.763663 90.7272 0.0600586 89.8703 0.0600586C89.012 0.0600586 88.3116 0.763663 88.3116 1.62266V6.30796H85.1942C84.3372 6.30796 83.6355 7.01032 83.6355 7.86931C83.6355 8.72831 84.3372 9.43067 85.1942 9.43067H88.3116V12.5546H85.1942C84.3372 12.5546 83.6355 13.257 83.6355 14.116C83.6355 14.975 84.3372 15.6786 85.1942 15.6786H88.3116V18.8013H85.1942C84.3372 18.8013 83.6355 19.5049 83.6355 20.3639C83.6355 21.2229 84.3372 21.9252 85.1942 21.9252H88.3116V25.0492H85.1942C84.3372 25.0492 83.6355 25.7515 83.6355 26.6105C83.6355 27.4695 84.3372 28.1719 85.1942 28.1719H88.3116V31.2958H85.1942C84.3372 31.2958 83.6355 31.9982 83.6355 32.8572C83.6355 33.7162 84.3372 34.4198 85.1942 34.4198H88.3116V37.5425H85.1942C84.3372 37.5425 83.6355 38.2461 83.6355 39.1051C83.6355 39.9641 84.3372 40.6665 85.1942 40.6665H88.3116V43.7904H85.1942C84.3372 43.7904 83.6355 44.4928 83.6355 45.3518C83.6355 46.2108 84.3372 46.9131 85.1942 46.9131H88.3116V50.0371H80.5193V15.3653C80.5193 13.6473 79.1159 12.2426 77.4019 12.2426H74.2845C72.5706 12.2426 71.1684 13.6473 71.1684 15.3653V50.1154H67.2463C67.2463 51.1298 67.3808 52.2237 67.3026 53.2381H71.1684C72.8823 53.2381 74.2845 51.8334 74.2845 50.1154V15.3653H77.4019V50.0371C77.4019 51.755 78.8041 53.161 80.5193 53.161H88.3116V56.2837H66.9605C68.5962 45.9758 65.4018 35.1222 57.5313 27.1575C44.4395 14.116 23.1667 14.116 10.0762 27.2358C-3.01563 40.3544 -3.01563 61.6714 10.0762 74.7912C16.6215 81.2716 25.1924 84.6293 33.8429 84.6293C40.9334 84.6293 48.0252 82.3655 54.0252 77.8356L56.4409 80.2572L55.8944 80.803C55.2709 81.4282 55.2709 82.3655 55.8944 82.9896L70.7784 97.9045C72.1806 99.3105 73.9728 99.9345 75.765 99.9345C77.5572 99.9345 79.3506 99.2321 80.7528 97.9045C83.4802 95.1721 83.4802 90.7205 80.7528 87.9882L70.2332 77.5236L65.7918 73.0732C65.1683 72.448 64.1549 72.448 63.6096 73.0732L63.0644 73.619L60.6487 71.1986C63.3761 67.6073 65.2453 63.6243 66.337 59.486H98.4412C99.2982 59.486 99.9999 58.7824 99.9999 57.9234C99.9999 57.0644 99.2982 56.362 98.4412 56.362ZM78.4924 90.2519C80.0511 91.8145 80.0511 94.2348 78.4924 95.7962C76.9349 97.2805 74.5193 97.3588 72.9606 95.7962L63.6096 86.4256L69.1415 80.8813L78.4924 90.2519ZM64.7001 76.4309L66.8823 78.6176L61.3492 84.1618L59.1683 81.9752L64.7001 76.4309ZM57.2978 70.3396C56.7526 70.9649 56.8296 71.901 57.3749 72.448L60.804 75.8839L59.3235 77.3682L58.6218 78.0706L55.1939 74.6346C54.6487 74.0876 53.7135 74.0093 53.09 74.5563C40.9334 84.5522 23.4002 83.6932 12.2571 72.5263C8.51748 68.7783 5.94532 64.2484 4.54312 59.486H63.0644C61.9727 63.3123 60.0253 67.0603 57.2978 70.3396ZM63.8431 56.362H3.84139C2.20569 46.8348 5.01011 36.7618 12.2571 29.4212C18.1802 23.4866 26.0494 20.5193 33.8429 20.5193C41.6351 20.5193 49.4274 23.4866 55.3492 29.4212C62.6744 36.7618 65.5571 46.8348 63.8431 56.362Z" fill="#DA6A03"/>
</g>
<path d="M61.3381 29.2949C59.6241 29.2949 58.2219 30.7009 58.2219 32.4189V34.0585C58.5337 34.3706 58.9224 34.6838 59.2341 34.9959C60.0141 35.7765 60.7158 36.4789 61.3381 37.3379V32.4189H64.4555V41.5545C65.7024 43.5858 66.3892 45.8669 67.2462 47.9752L67.5729 32.4972C67.5729 30.7792 66.1694 29.3732 64.4555 29.3732H61.3381V29.2949Z" fill="#DA6A03"/>
<path d="M33.3635 16.5027V16.581C34.377 16.581 35.4675 16.6594 36.4809 16.7377V16.5027H39.5983V17.128C40.6888 17.2846 41.7022 17.5184 42.7145 17.8304V16.5027C42.7145 14.7847 41.3123 13.38 39.5983 13.38H36.4809C34.6887 13.38 33.3635 14.7847 33.3635 16.5027Z" fill="#DA6A03"/>
<path d="M20.9006 23.2695V46.7743L3.57691 46.6624C3.57691 47.6768 3.26415 48.9895 3.3424 50.0039L20.9006 49.897C22.6145 49.897 24.0167 48.4923 24.0167 46.7743V21.9418C22.9263 22.2539 21.9128 22.7225 20.9006 23.2695Z" fill="#DA6A03"/>
<path d="M33.3634 16.4834V35.8486H30.2473V18.2598C29.3308 19.999 28.1433 18.0261 27.1299 18.2598V35.8486C27.1299 37.5666 28.5321 38.9726 30.2473 38.9726H33.3634C35.0786 38.9726 36.4808 37.5666 36.4808 35.8486V16.7171C35.3904 16.5617 34.3769 16.4834 33.3634 16.4834Z" fill="#DA6A03"/>
<path d="M51.9886 27.7876H48.8712C47.1573 27.7876 45.7538 29.1936 45.7538 30.9116V42.0002H42.6377V17.1677C41.6242 16.7773 40.6107 16.4653 39.5203 16.2304V41.9219C39.5203 43.6398 40.9225 45.0458 42.6377 45.0458H45.7538C47.469 45.0458 48.8712 43.6398 48.8712 41.9219V30.8333H51.9886V41.9219C51.9886 43.6398 53.3908 45.0458 55.1047 45.0458H58.2221C59.1574 45.0458 60.0143 44.5772 60.6378 43.8736C60.7931 39.6569 60.0143 35.5186 58.2221 31.6139V41.9219H55.1047V30.9116C55.1047 29.1936 53.7025 27.7876 51.9886 27.7876Z" fill="#DA6A03"/>
</svg>
