<svg width="55" height="55" viewBox="0 0 55 55" fill="none" xmlns="http://www.w3.org/2000/svg">
<circle cx="27.5" cy="27.5" r="27.5" fill="url(#paint0_linear_1_365)"/>
<path d="M40.1375 38.3625L35.5 33.7625C37.3001 31.518 38.1719 28.6691 37.936 25.8016C37.7002 22.9341 36.3746 20.266 34.2319 18.3458C32.0892 16.4256 29.2923 15.3994 26.4162 15.4781C23.5401 15.5568 20.8034 16.7345 18.7689 18.7689C16.7345 20.8034 15.5568 23.5401 15.4781 26.4162C15.3994 29.2923 16.4256 32.0892 18.3458 34.2319C20.266 36.3746 22.9341 37.7002 25.8016 37.936C28.6691 38.1719 31.518 37.3001 33.7625 35.5L38.3625 40.1C38.4787 40.2172 38.617 40.3102 38.7693 40.3736C38.9216 40.4371 39.085 40.4697 39.25 40.4697C39.415 40.4697 39.5784 40.4371 39.7307 40.3736C39.883 40.3102 40.0213 40.2172 40.1375 40.1C40.3628 39.8669 40.4887 39.5554 40.4887 39.2313C40.4887 38.9071 40.3628 38.5956 40.1375 38.3625ZM26.75 35.5C25.0194 35.5 23.3277 34.9868 21.8888 34.0254C20.4498 33.0639 19.3283 31.6973 18.6661 30.0985C18.0038 28.4996 17.8305 26.7403 18.1681 25.043C18.5058 23.3456 19.3391 21.7865 20.5628 20.5628C21.7865 19.3391 23.3456 18.5058 25.043 18.1681C26.7403 17.8305 28.4996 18.0038 30.0985 18.6661C31.6973 19.3283 33.0639 20.4498 34.0254 21.8888C34.9868 23.3277 35.5 25.0194 35.5 26.75C35.5 29.0706 34.5781 31.2962 32.9372 32.9372C31.2962 34.5781 29.0706 35.5 26.75 35.5Z" fill="white"/>
<defs>
<linearGradient id="paint0_linear_1_365" x1="27.5" y1="0" x2="22.2622" y2="179.287" gradientUnits="userSpaceOnUse">
<stop stop-color="#47B59C"/>
<stop offset="1" stop-color="#3963AB"/>
</linearGradient>
</defs>
</svg>
