<svg width="44" height="44" viewBox="0 0 44 44" fill="none" xmlns="http://www.w3.org/2000/svg">
<g filter="url(#filter0_d_1_44)">
<ellipse cx="17.4727" cy="17.2348" rx="17.4727" ry="17.2348" transform="matrix(-1 0 0 1 37.8641 2.72726)" fill="white"/>
<path d="M23.6416 29.2977L14.8792 20.6802C14.7752 20.5777 14.7014 20.4665 14.6577 20.3468C14.614 20.2272 14.5925 20.0989 14.5932 19.9621C14.5932 19.8253 14.6147 19.6971 14.6577 19.5774C14.7007 19.4577 14.7745 19.3466 14.8792 19.244L23.6416 10.6009C23.8842 10.3616 24.1876 10.2419 24.5516 10.2419C24.9156 10.2419 25.2276 10.3701 25.4876 10.6266C25.7476 10.8831 25.8776 11.1823 25.8776 11.5242C25.8776 11.8662 25.7476 12.1654 25.4876 12.4219L17.8433 19.9621L25.4876 27.5024C25.7303 27.7418 25.8516 28.0369 25.8516 28.3877C25.8516 28.7386 25.7216 29.0419 25.4616 29.2977C25.2016 29.5541 24.8983 29.6824 24.5516 29.6824C24.2049 29.6824 23.9016 29.5541 23.6416 29.2977Z" fill="#636363"/>
</g>
<defs>
<filter id="filter0_d_1_44" x="0.918762" y="0.727264" width="42.9453" height="42.4697" filterUnits="userSpaceOnUse" color-interpolation-filters="sRGB">
<feFlood flood-opacity="0" result="BackgroundImageFix"/>
<feColorMatrix in="SourceAlpha" type="matrix" values="0 0 0 0 0 0 0 0 0 0 0 0 0 0 0 0 0 0 127 0" result="hardAlpha"/>
<feOffset dx="2" dy="2"/>
<feGaussianBlur stdDeviation="2"/>
<feComposite in2="hardAlpha" operator="out"/>
<feColorMatrix type="matrix" values="0 0 0 0 0 0 0 0 0 0 0 0 0 0 0 0 0 0 0.25 0"/>
<feBlend mode="normal" in2="BackgroundImageFix" result="effect1_dropShadow_1_44"/>
<feBlend mode="normal" in="SourceGraphic" in2="effect1_dropShadow_1_44" result="shape"/>
</filter>
</defs>
</svg>
