<svg width="44" height="44" viewBox="0 0 44 44" fill="none" xmlns="http://www.w3.org/2000/svg">
<g filter="url(#filter0_d_1_39)">
<ellipse cx="19.6055" cy="19.9621" rx="17.4727" ry="17.2348" fill="white"/>
<path d="M16.3553 29.2977L25.1177 20.6802C25.2217 20.5777 25.2955 20.4665 25.3392 20.3468C25.3829 20.2272 25.4044 20.0989 25.4037 19.9621C25.4037 19.8253 25.3822 19.6971 25.3392 19.5774C25.2962 19.4577 25.2224 19.3466 25.1177 19.244L16.3553 10.6009C16.1127 10.3616 15.8093 10.2419 15.4453 10.2419C15.0813 10.2419 14.7693 10.3701 14.5093 10.6266C14.2493 10.8831 14.1192 11.1823 14.1192 11.5242C14.1192 11.8662 14.2493 12.1654 14.5093 12.4219L22.1535 19.9621L14.5093 27.5024C14.2666 27.7418 14.1452 28.0369 14.1452 28.3877C14.1452 28.7386 14.2753 29.0419 14.5353 29.2977C14.7953 29.5541 15.0986 29.6824 15.4453 29.6824C15.792 29.6824 16.0953 29.5541 16.3553 29.2977Z" fill="#636363"/>
</g>
<defs>
<filter id="filter0_d_1_39" x="0.132812" y="0.727264" width="42.9453" height="42.4697" filterUnits="userSpaceOnUse" color-interpolation-filters="sRGB">
<feFlood flood-opacity="0" result="BackgroundImageFix"/>
<feColorMatrix in="SourceAlpha" type="matrix" values="0 0 0 0 0 0 0 0 0 0 0 0 0 0 0 0 0 0 127 0" result="hardAlpha"/>
<feOffset dx="2" dy="2"/>
<feGaussianBlur stdDeviation="2"/>
<feComposite in2="hardAlpha" operator="out"/>
<feColorMatrix type="matrix" values="0 0 0 0 0 0 0 0 0 0 0 0 0 0 0 0 0 0 0.25 0"/>
<feBlend mode="normal" in2="BackgroundImageFix" result="effect1_dropShadow_1_39"/>
<feBlend mode="normal" in="SourceGraphic" in2="effect1_dropShadow_1_39" result="shape"/>
</filter>
</defs>
</svg>
