<svg width="100" height="100" viewBox="0 0 100 100" fill="none" xmlns="http://www.w3.org/2000/svg">
<mask id="mask0_1_80" style="mask-type:luminance" maskUnits="userSpaceOnUse" x="0" y="0" width="100" height="100">
<path d="M0.5 0.5H99.5V99.5H0.5V0.5Z" fill="white" stroke="white"/>
</mask>
<g mask="url(#mask0_1_80)">
<path d="M97.0717 82.4176C97.7625 81.5787 98.061 80.2954 98.061 78.7107V74.255V73.755H97.561H10.9761C10.6656 73.755 10.256 73.4105 10.256 72.7703C10.256 72.13 10.6656 71.7855 10.9761 71.7855H97.561H98.061V71.2855V14.8551V14.3551H97.561H2.43899H1.93899V14.8551V78.7107C1.93899 80.2954 2.2375 81.5785 2.92678 82.4172C3.63565 83.2799 4.74207 83.6649 6.09809 83.6649H41.8692H41.8693H41.8694H41.8694H41.8695H41.8696H41.8697H41.8698H41.8699H41.8699H41.87H41.87H41.8701H41.8702H41.8703H41.8703H41.8704H41.8705H41.8705H41.8706H41.8707H41.8708H41.8709H41.8709H41.871H41.8711H41.8712H41.8713H41.8713H41.8714H41.8715H41.8716H41.8717H41.8717H41.8718H41.8719H41.872H41.872H41.8721H41.8722H41.8723H41.8724H41.8724H41.8725H41.8726H41.8727H41.8727H41.8728H41.8729H41.873H41.8731H41.8731H41.8732H41.8733H41.8734H41.8734H41.8735H41.8736H41.8737H41.8737H41.8738H41.8739H41.874H41.874H41.8741H41.8742H41.8743H41.8743H41.8744H41.8745H41.8746H41.8746H41.8747H41.8748H41.8749H41.8749H41.875H41.8751H41.8751H41.8752H41.8753H41.8754H41.8754H41.8755H41.8756H41.8757H41.8757H41.8758H41.8759H41.876H41.876H41.8761H41.8762H41.8763H41.8763H41.8764H41.8765H41.8766H41.8766H41.8767H41.8768H41.8769H41.8769H41.877H41.8771H41.8772H41.8772H41.8773H41.8774H41.8775H41.8775H41.8776H41.8777H41.8778H41.8778H41.8779H41.878H41.8781H41.8781H41.8782H41.8783H41.8784H41.8784H41.8785H41.8786H41.8787H41.8787H41.8788H41.8789H41.879H41.879H41.8791H41.8792H41.8793H41.8794H41.8794H41.8795H41.8796H41.8797H41.8797H41.8798H41.8799H41.88H41.8801H41.8801H41.8802H41.8803H41.8804H41.8805H41.8805H41.8806H41.8807H41.8808H41.8809H41.8809H41.881H41.8811H41.8811H41.8812H41.8813H41.8814H41.8814H41.8815H41.8816H41.8817H41.8817H41.8818H41.8819H41.8819H41.882H41.8821H41.8822H41.8823H41.8824H41.8825H52.439C52.7492 83.6649 53.1591 84.0091 53.1591 84.6511C53.1591 85.2914 52.7495 85.6359 52.439 85.6359H42.6746H42.3205L42.203 85.9698L38.369 96.8589L38.1345 97.525H38.8407H59.5329H60.239L60.0046 96.859L55.8548 85.0691L55.8547 85.0689C55.6545 84.5007 55.9008 83.9132 56.2547 83.7285C56.537 83.5817 56.9616 83.6881 57.1527 84.2317L57.1528 84.2318L61.7149 97.191L61.8325 97.525H62.1865H71.1384C71.448 97.525 71.8573 97.8684 71.8573 98.5112C71.8573 99.1521 71.4483 99.4959 71.1384 99.4959H61.3884H61.3883H61.3883H61.3882H61.3881H61.3881H61.388H61.388H61.3879H61.3878H61.3878H61.3877H61.3876H61.3876H61.3875H61.3874H61.3874H61.3873H61.3873H61.3872H61.3871H61.3871H61.387H61.3869H61.3869H61.3868H61.3867H61.3867H61.3866H61.3865H61.3865H61.3864H61.3863H61.3863H61.3862H61.3861H61.3861H61.386H61.3859H61.3859H61.3858H61.3858H61.3857H61.3856H61.3856H61.3855H61.3854H61.3854H61.3853H61.3853H61.3852H61.3851H61.3851H61.385H61.3849H61.3849H61.3848H61.3847H61.3847H61.3846H61.3845H61.3845H61.3844H61.3843H61.3843H61.3842H61.3841H61.384H61.384H61.3839H61.3838H61.3838H61.3837H61.3836H61.3836H61.3835H61.3834H61.3834H61.3833H61.3832H61.3831H61.3831H61.383H61.3829H61.3829H61.3828H61.3827H61.3826H61.3826H61.3825H61.3824H61.3823H61.3822H61.3822H61.3821H61.382H61.382H61.3819H61.3818H61.3817H61.3817H61.3816H61.3815H61.3815H61.3814H61.3813H61.3812H61.3812H61.3811H61.381H61.381H61.3809H61.3808H61.3807H61.3807H61.3806H61.3805H61.3804H61.3804H61.3803H61.3802H61.3802H61.3801H61.38H61.38H61.3799H61.3798H61.3798H61.3797H61.3796H61.3796H61.3795H61.3795H61.3794H61.3793H61.3793H61.3792H61.3792H61.3791H61.379H61.379H61.3789H61.3788H61.3788H61.3787H61.3787H61.3786H61.3785H61.3785H61.3784H61.3783H61.3783H61.3782H61.3781H61.3781H61.378H61.3779H61.3779H61.3778H61.3777H61.3777H61.3776H61.3775H61.3775H61.3774H61.3773H61.3773H61.3772H61.3771H61.3771H61.377H61.3769H61.3769H61.3768H61.3767H61.3766H61.3766H61.3765H61.3764H61.3764H61.3763H61.3762H61.3761H61.3761H61.376H61.3759H61.3758H61.3758H61.3757H61.3756H61.3755H61.3755H61.3754H61.3753H61.3752H61.3752H61.3751H61.375H61.3749H61.3749H61.3748H61.3747H61.3747H61.3746H61.3746H61.3745H61.3744H61.3744H61.3743H61.3743H61.3742H61.3741H61.3741H61.374H61.3739H36.9997H36.9996H36.9995H36.9994H36.9994H36.9993H36.9992H36.9992H36.9991H36.999H36.999H36.9989H36.9989H36.9988H36.9987H36.9987H36.9986H36.9985H36.9985H36.9984H36.9984H36.9983H36.9982H36.9982H36.9981H36.998H36.998H36.9979H36.9978H36.9978H36.9977H36.9976H36.9976H36.9975H36.9974H36.9974H36.9973H36.9972H36.9972H36.9971H36.997H36.9969H36.9969H36.9968H36.9967H36.9967H36.9966H36.9965H36.9965H36.9964H36.9963H36.9963H36.9962H36.9961H36.996H36.996H36.9959H36.9958H36.9958H36.9957H36.9956H36.9955H36.9955H36.9954H36.9953H36.9953H36.9952H36.9951H36.9951H36.995H36.9949H36.9948H36.9948H36.9947H36.9946H36.9946H36.9945H36.9944H36.9944H36.9943H36.9942H36.9941H36.9941H36.994H36.9939H36.9939H36.9938H36.9937H36.9937H36.9936H36.9935H36.9935H36.9934H36.9933H36.9933H36.9932H36.9931H36.9931H36.993H36.9929H36.9929H36.9928H36.9927H36.9927H36.9926H36.9925H36.9925H36.9924H36.9923H36.9923H36.9922H36.9921H36.9921H36.992H36.992H36.9919H36.9918H36.9918H36.9917H36.9917H36.9916H36.9915H36.9915H36.9914H36.9913H36.9912H36.9912H36.9911H36.991H36.9909H36.9909H36.9908H36.9907H36.9907H36.9906H36.9905H36.9905H36.9904H36.9904H36.9903H36.9902H36.9902H36.9901H36.99H36.99H36.9899H36.9898H36.9898H36.9897H36.9896H36.9896H36.9895H36.9894H36.9894H36.9893H36.9892H36.9892H36.9891H36.989H36.989H36.9889H36.9888H36.9888H36.9887H36.9886H36.9886H36.9885H36.9885H36.9884H36.9883H36.9883H36.9882H36.9881H36.9881H36.988H36.9879H36.9879H36.9878H36.9878H36.9877H36.9876H36.9876H36.9875H36.9874H36.9874H36.9873H36.9872H36.9872H36.9871H36.987H36.987H36.9869H36.9868H36.9868H36.9867H36.9866H36.9866H36.9865H36.9864H36.9864H36.9863H36.9862H36.9862H36.9861H36.9861H36.986H36.9859H36.9859H36.9858H36.9857H36.9857H36.9856H36.9855H36.9855H36.9854H36.9853H36.9853H36.9852H28.8616C28.5517 99.4959 28.1427 99.1521 28.1427 98.5112C28.1427 97.8684 28.552 97.525 28.8616 97.525H36.1883H36.5424L36.6599 97.191L40.4926 86.3019L40.727 85.6359H40.021H6.09809C4.2825 85.6359 2.9179 85.0316 1.9755 83.8835L1.97532 83.8833C1.01945 82.7201 0.5 81.002 0.5 78.7107V7.42991C0.5 5.13865 1.01945 3.42053 1.97532 2.25733L1.9755 2.25711C2.9179 1.10899 4.2825 0.50473 6.09809 0.50473H93.9019C95.7259 0.50473 97.09 1.10686 98.0293 2.25124L98.0295 2.25146C98.9814 3.40978 99.5 5.13042 99.5 7.42991V78.7107C99.5 81.002 98.9805 82.7201 98.0247 83.8833L98.0245 83.8835C97.0821 85.0316 95.7175 85.6359 93.9019 85.6359H61.3824C61.0719 85.6359 60.6623 85.2914 60.6623 84.6511C60.6623 84.0091 61.0722 83.6649 61.3824 83.6649H93.9019C95.2573 83.6649 96.3639 83.2802 97.0717 82.4176ZM97.0717 82.4176L96.6857 82.0998M97.0717 82.4176C97.0719 82.4174 97.0721 82.4171 97.0723 82.4168L96.6857 82.0998M96.6857 82.0998C96.1058 82.807 95.169 83.1649 93.9019 83.1649H61.3824C60.7084 83.1649 60.1623 83.8295 60.1623 84.6511C60.1623 85.4713 60.7084 86.1359 61.3824 86.1359H93.9019C95.8394 86.1359 97.3573 85.4845 98.411 84.2007L57.6244 84.0658C57.3592 83.3116 56.643 82.9625 56.0233 83.2852C55.4049 83.608 55.1179 84.4824 55.3831 85.2351L59.3569 96.525H59.5329V97.025L59.0613 97.191L59.0029 97.025H39.3707L39.3123 97.191L38.8407 97.025V96.525H39.0167L42.6746 86.1359H52.439C53.1129 86.1359 53.6591 85.4713 53.6591 84.6511C53.6591 83.8295 53.1129 83.1649 52.439 83.1649H41.8825H41.8692H6.09809C4.83097 83.1649 3.89419 82.807 3.31308 82.0998C2.73317 81.3941 2.43899 80.2527 2.43899 78.7107V15.3551V14.8551H2.93899H97.061H97.561V15.3551V70.7855V71.2855H97.061H10.9761C10.3021 71.2855 9.75598 71.9501 9.75598 72.7703C9.75598 73.5904 10.3021 74.255 10.9761 74.255H97.061H97.561V74.755V78.7107C97.561 80.2527 97.2668 81.3941 96.6857 82.0998ZM1.93899 11.8856V12.3856H2.43899H97.561H98.061V11.8856V7.42991C98.061 5.83022 97.7848 4.57287 97.0799 3.71467C96.3555 2.83267 95.2679 2.47568 93.9019 2.47568H6.09809C4.74207 2.47568 3.63565 2.86075 2.92678 3.72338C2.2375 4.56215 1.93899 5.84519 1.93899 7.42991V11.8856Z" fill="#F45FF4" stroke="#F45FF4"/>
</g>
<path d="M41.7702 50.0914L41.6801 49.7051H41.2833H30.9511C30.6406 49.7051 30.231 49.3606 30.231 48.7204C30.231 48.0794 30.6411 47.7341 30.9511 47.7341H41.2833H41.68L41.7702 47.3479C42.2668 45.222 43.8406 43.7743 45.585 43.7743C47.1234 43.7743 48.5234 44.8929 49.1793 46.6235L49.4064 47.2228L49.9324 46.8567L59.3484 40.3045L59.5281 40.1794L59.5581 39.9625C59.8908 37.5549 61.5835 35.8547 63.4706 35.8547C65.2164 35.8547 66.79 37.3011 67.2853 39.428L67.3754 39.8145H67.7723H77.0557H77.4524L77.5426 39.4282C78.0391 37.3009 79.6117 35.8547 81.3574 35.8547C82.9857 35.8547 84.4602 37.1099 85.0566 39.0095L85.2191 39.527L85.7217 39.323L94.1684 35.8943L94.1689 35.8941C94.4497 35.7798 94.8813 35.9242 95.04 36.5018C95.2026 37.098 94.9113 37.6438 94.5634 37.7844L94.5626 37.7847L85.5469 41.4452L85.289 41.5499L85.2421 41.8243C84.8479 44.1342 83.1968 45.7453 81.3574 45.7453C79.6119 45.7453 78.0392 44.2979 77.5426 42.1704L77.4524 41.784H77.0557H67.7723H67.3754L67.2853 42.1706C66.7899 44.2977 65.2162 45.7453 63.4706 45.7453C61.9323 45.7453 60.5335 44.6269 59.8776 42.8962L59.6505 42.2969L59.1244 42.6629L49.7084 49.2152L49.5287 49.3402L49.4987 49.5571C49.166 51.9633 47.4732 53.6649 45.585 53.6649C43.8405 53.6649 42.2668 52.2186 41.7702 50.0914ZM48.1177 48.7204C48.1177 47.1746 47.0685 45.7453 45.585 45.7453C44.1002 45.7453 43.0523 47.1748 43.0523 48.7204C43.0523 50.2642 44.1 51.6954 45.585 51.6954C47.0687 51.6954 48.1177 50.2644 48.1177 48.7204ZM66.0033 40.7993C66.0033 39.2554 64.9556 37.8242 63.4706 37.8242C61.9866 37.8242 60.9391 39.2556 60.9391 40.7993C60.9391 42.343 61.9866 43.7743 63.4706 43.7743C64.9556 43.7743 66.0033 42.3432 66.0033 40.7993ZM83.8901 40.7993C83.8901 39.2554 82.8424 37.8242 81.3574 37.8242C79.8723 37.8242 78.8247 39.2554 78.8247 40.7993C78.8247 42.3432 79.8723 43.7743 81.3574 43.7743C82.8424 43.7743 83.8901 42.3432 83.8901 40.7993Z" fill="#F45FF4" stroke="#F45FF4"/>
<path d="M44.8647 68.5197V58.6195C44.8647 57.9792 45.2744 57.6348 45.5848 57.6348C45.8948 57.6348 46.3037 57.9785 46.3037 58.6195V68.5197C46.3037 69.1614 45.8942 69.5059 45.5848 69.5059C45.2749 69.5059 44.8647 69.1607 44.8647 68.5197Z" fill="#F45FF4" stroke="#F45FF4"/>
<path d="M62.7516 68.52V50.7001C62.7516 50.0595 63.1615 49.7154 63.4705 49.7154C63.781 49.7154 64.1906 50.0599 64.1906 50.7001V68.52C64.1906 69.1609 63.7804 69.5062 63.4705 69.5062C63.1621 69.5062 62.7516 69.1613 62.7516 68.52Z" fill="#F45FF4" stroke="#F45FF4"/>
<path d="M80.6372 68.52V50.7001C80.6372 50.0599 81.0468 49.7154 81.3573 49.7154C81.6672 49.7154 82.0762 50.0592 82.0762 50.7001V68.52C82.0762 69.1616 81.6667 69.5062 81.3573 69.5062C81.0474 69.5062 80.6372 69.1609 80.6372 68.52Z" fill="#F45FF4" stroke="#F45FF4"/>
<path d="M48.8367 29.9057H32.5763C32.2673 29.9057 31.8574 29.5615 31.8574 28.9209C31.8574 28.2803 32.2673 27.9362 32.5763 27.9362H48.8367C49.1472 27.9362 49.5568 28.2807 49.5568 28.9209C49.5568 29.5612 49.1472 29.9057 48.8367 29.9057Z" fill="#F45FF4" stroke="#F45FF4"/>
<path d="M42.3335 35.8454H32.5763C32.2673 35.8454 31.8574 35.5013 31.8574 34.8607C31.8574 34.2194 32.2679 33.8745 32.5763 33.8745H42.3335C42.6419 33.8745 43.0524 34.2194 43.0524 34.8607C43.0524 35.5013 42.6425 35.8454 42.3335 35.8454Z" fill="#F45FF4" stroke="#F45FF4"/>
<path d="M20.475 32.8807C20.475 31.3369 19.4273 29.9057 17.9423 29.9057C16.4586 29.9057 15.4096 31.3366 15.4096 32.8807C15.4096 34.4248 16.4586 35.8558 17.9423 35.8558C19.4273 35.8558 20.475 34.4246 20.475 32.8807ZM21.914 32.8807C21.914 35.7043 20.0442 37.8253 17.9423 37.8253C15.8404 37.8253 13.9706 35.7043 13.9706 32.8807C13.9706 30.0585 15.8405 27.9362 17.9423 27.9362C20.0441 27.9362 21.914 30.0585 21.914 32.8807Z" fill="#F45FF4" stroke="#F45FF4"/>
<path d="M24.4265 43.266L24.8701 43.8773L25.2596 43.2301C26.3433 41.4293 26.9792 39.2198 26.9792 36.8397C26.9792 30.928 23.0139 25.945 17.9422 25.945C12.8716 25.945 8.90628 30.9281 8.90628 36.8397C8.90628 39.2198 9.54225 41.4293 10.626 43.2301L11.0156 43.8775L11.4591 43.2659C13.1112 40.9878 15.3274 39.8147 17.9422 39.8147C20.5569 39.8147 22.7732 40.9878 24.4265 43.266ZM12.354 44.817L12.1105 45.1722L12.4257 45.4656C13.9428 46.8781 15.8549 47.7343 17.9422 47.7343C20.0294 47.7343 21.9427 46.8782 23.4599 45.4656L23.7752 45.172L23.5314 44.8168C22.1454 42.7966 20.2966 41.7842 17.9422 41.7842C15.5877 41.7842 13.7388 42.7966 12.354 44.817ZM28.4182 36.8397C28.4182 44.0296 23.6307 49.7053 17.9422 49.7053C12.2549 49.7053 7.46729 44.0296 7.46729 36.8397C7.46729 29.6498 12.2548 23.9755 17.9422 23.9755C23.6307 23.9755 28.4182 29.6498 28.4182 36.8397Z" fill="#F45FF4" stroke="#F45FF4"/>
<path d="M30.9511 69.5062C30.6411 69.5062 30.231 69.161 30.231 68.52V56.6406C30.231 56.0004 30.6406 55.6559 30.9511 55.6559C31.26 55.6559 31.67 56 31.67 56.6406V68.52C31.67 69.1613 31.2595 69.5062 30.9511 69.5062Z" fill="#F45FF4" stroke="#F45FF4"/>
<path d="M18.7715 7.32296C18.7715 6.67095 19.1895 6.31621 19.5097 6.31621C19.8292 6.31621 20.2466 6.67027 20.2466 7.32296C20.2466 7.97745 19.829 8.33117 19.5097 8.33117C19.1898 8.33117 18.7715 7.97677 18.7715 7.32296Z" fill="#F45FF4" stroke="#F45FF4"/>
<path d="M13.985 7.32296C13.985 6.67095 14.403 6.31621 14.7232 6.31621C15.0433 6.31621 15.4614 6.67095 15.4614 7.32296C15.4614 7.97677 15.043 8.33117 14.7232 8.33117C14.4033 8.33117 13.985 7.97677 13.985 7.32296Z" fill="#F45FF4" stroke="#F45FF4"/>
<path d="M9.19983 7.32296C9.19983 6.67027 9.61724 6.31621 9.93681 6.31621C10.2569 6.31621 10.675 6.67095 10.675 7.32296C10.675 7.97677 10.2567 8.33117 9.93681 8.33117C9.61752 8.33117 9.19983 7.97745 9.19983 7.32296Z" fill="#F45FF4" stroke="#F45FF4"/>
<path d="M6.6901 74.0426C6.37054 74.0426 5.95312 73.6886 5.95312 73.0359C5.95312 72.3832 6.37054 72.0291 6.6901 72.0291C7.01023 72.0291 7.42829 72.3839 7.42829 73.0359C7.42829 73.6879 7.01023 74.0426 6.6901 74.0426Z" fill="#F45FF4" stroke="#F45FF4"/>
</svg>
