<svg width="100" height="100" viewBox="0 0 100 100" fill="none" xmlns="http://www.w3.org/2000/svg">
<path d="M66.6668 43.8593H63.3333V42.105C63.3333 34.3662 57.3521 28.0692 50.0002 28.0692C42.6482 28.0692 36.6671 34.3662 36.6671 42.105V43.8593H33.3335V42.105C33.3335 32.4315 40.8108 24.5606 50.0002 24.5606C59.1895 24.5606 66.6668 32.4315 66.6668 42.105V43.8593Z" fill="#46CEB2"/>
<mask id="mask0_1_170" style="mask-type:luminance" maskUnits="userSpaceOnUse" x="39" y="0" width="22" height="22">
<path d="M39.8148 0H60.1852V21.1051H39.8148V0Z" fill="white"/>
</mask>
<g mask="url(#mask0_1_170)">
<path d="M49.9999 21.052C44.4854 21.052 40.0004 16.3315 40.0004 10.5261C40.0004 4.72076 44.4854 0.000244141 49.9999 0.000244141C55.5145 0.000244141 59.9994 4.72076 59.9994 10.5261C59.9994 16.3315 55.5145 21.052 49.9999 21.052ZM49.9999 3.50887C46.3227 3.50887 43.334 6.65546 43.334 10.5261C43.334 14.3955 46.3227 17.5434 49.9999 17.5434C53.6759 17.5434 56.6659 14.3955 56.6659 10.5261C56.6659 6.65546 53.6759 3.50887 49.9999 3.50887Z" fill="#46CEB2"/>
</g>
<mask id="mask1_1_170" style="mask-type:luminance" maskUnits="userSpaceOnUse" x="0" y="80" width="34" height="20">
<path d="M0 80.6174H33.3333V100H0V80.6174Z" fill="white"/>
</mask>
<g mask="url(#mask1_1_170)">
<path d="M33.3336 99.9999H30.0012V98.2456C30.0012 90.5068 24.0189 84.2098 16.6681 84.2098C9.31618 84.2098 3.33504 90.5068 3.33504 98.2456V99.9999H0.00146484V98.2456C0.00146484 88.5708 7.47759 80.7012 16.6681 80.7012C25.8575 80.7012 33.3336 88.5708 33.3336 98.2456V99.9999Z" fill="#46CEB2"/>
</g>
<path d="M16.6677 77.1926C11.1519 77.1926 6.66699 72.4709 6.66699 66.6667C6.66699 60.8614 11.1519 56.1396 16.6677 56.1396C22.1823 56.1396 26.6672 60.8614 26.6672 66.6667C26.6672 72.4709 22.1823 77.1926 16.6677 77.1926ZM16.6677 59.6482C12.9905 59.6482 10.0006 62.7961 10.0006 66.6667C10.0006 70.5361 12.9905 73.684 16.6677 73.684C20.3437 73.684 23.3337 70.5361 23.3337 66.6667C23.3337 62.7961 20.3437 59.6482 16.6677 59.6482Z" fill="#46CEB2"/>
<mask id="mask2_1_170" style="mask-type:luminance" maskUnits="userSpaceOnUse" x="66" y="80" width="34" height="20">
<path d="M66.6665 80.6174H99.9998V100H66.6665V80.6174Z" fill="white"/>
</mask>
<g mask="url(#mask2_1_170)">
<path d="M99.9986 99.9999H96.6651V98.2456C96.6651 90.5068 90.6839 84.2098 83.332 84.2098C75.9812 84.2098 69.9989 90.5068 69.9989 98.2456V99.9999H66.6665V98.2456C66.6665 88.5708 74.1426 80.7012 83.332 80.7012C92.5225 80.7012 99.9986 88.5708 99.9986 98.2456V99.9999Z" fill="#46CEB2"/>
</g>
<path d="M83.332 77.1926C77.8175 77.1926 73.3325 72.4709 73.3325 66.6667C73.3325 60.8614 77.8175 56.1396 83.332 56.1396C88.8478 56.1396 93.3328 60.8614 93.3328 66.6667C93.3328 72.4709 88.8478 77.1926 83.332 77.1926ZM83.332 59.6482C79.6561 59.6482 76.6661 62.7961 76.6661 66.6667C76.6661 70.5361 79.6561 73.684 83.332 73.684C87.0092 73.684 89.9992 70.5361 89.9992 66.6667C89.9992 62.7961 87.0092 59.6482 83.332 59.6482Z" fill="#46CEB2"/>
<path d="M6.7972 56.1978C6.71039 55.019 6.66699 53.8185 6.66699 52.6308C6.66699 33.0094 18.5304 15.6314 36.1869 9.38519L37.2479 12.7122C20.9501 18.4769 10.0006 34.5185 10.0006 52.6308C10.0006 53.7296 10.0404 54.8386 10.1211 55.926L6.7972 56.1978Z" fill="#46CEB2"/>
<path d="M49.9998 98.2454C45.2485 98.2454 40.5802 97.4412 36.1206 95.8533L37.1888 92.5289C45.4052 95.4519 54.5547 95.457 62.7832 92.5391L63.8477 95.866C59.3966 97.4451 54.738 98.2454 49.9998 98.2454Z" fill="#46CEB2"/>
<path d="M93.1952 56.2807L89.8724 56.0012C89.9568 54.8948 89.999 53.7616 89.999 52.6311C89.999 34.5607 79.0808 18.5292 62.8325 12.7404L63.9007 9.41595C81.5042 15.6875 93.3326 33.0541 93.3326 52.6311C93.3326 53.8544 93.2868 55.0802 93.1952 56.2807Z" fill="#46CEB2"/>
</svg>
