<svg width="100" height="100" viewBox="0 0 100 100" fill="none" xmlns="http://www.w3.org/2000/svg">
<path d="M61.4942 18.3456C61.4942 18.3456 77.8221 18.3456 77.8988 18.3456C79.8688 18.3456 79.9111 14.828 77.8988 14.828C77.8988 14.828 61.5469 14.828 61.4942 14.828C59.4979 14.828 59.5059 18.3456 61.4942 18.3456Z" fill="#FF6F71"/>
<path d="M90.1978 22.3671C90.1978 22.3671 61.671 22.3671 61.4901 22.3671C59.5121 22.3671 59.4949 25.8847 61.489 25.8847C61.489 25.8847 90.0329 25.8847 90.1966 25.8847C92.1208 25.8847 92.1998 22.3671 90.1978 22.3671Z" fill="#FF6F71"/>
<path d="M90.2035 29.9063C90.2035 29.9063 61.6401 29.9063 61.4947 29.9063C59.5006 29.9063 59.5029 33.4239 61.4947 33.4239C61.4947 33.4239 90.1245 33.4239 90.2035 33.4239C92.1334 33.4239 92.2078 29.9063 90.2035 29.9063Z" fill="#FF6F71"/>
<mask id="mask0_1_153" style="mask-type:luminance" maskUnits="userSpaceOnUse" x="51" y="0" width="49" height="56">
<path d="M51.6483 0H100V55.294H51.6483V0Z" fill="white"/>
</mask>
<g mask="url(#mask0_1_153)">
<path d="M90.1559 -0.116211H61.4471C56.0762 -0.116211 51.7058 4.87982 51.7058 11.0211C51.7058 11.0211 51.7058 53.0207 51.7058 53.2275C51.7058 54.7694 53.3816 55.5574 54.3317 54.471L62.0836 45.6072H90.1559C95.5268 45.6072 99.8961 40.6112 99.8961 34.4699V11.0211C99.8961 4.87982 95.5268 -0.116211 90.1559 -0.116211ZM96.8203 34.4699C96.8203 38.6714 93.8304 42.0902 90.1559 42.0902H61.4471C61.0396 42.0902 60.6481 42.2761 60.3597 42.6059L54.7827 48.9828V11.0211C54.7827 6.81959 57.7727 3.40077 61.4471 3.40077H90.1559C93.8304 3.40077 96.8203 6.81959 96.8203 11.0211V34.4699Z" fill="#FF6F71"/>
</g>
<path d="M77.1381 63.8552C75.2485 62.233 72.5755 62.0197 70.488 63.3393L59.9266 70.0103C59.1786 70.4865 58.2408 70.5311 57.4232 70.1392C49.2227 66.1793 41.4899 58.1751 40.6347 57.2748C35.8694 52.2582 30.9828 44.7253 28.6172 39.8762C28.1613 38.9411 28.2721 37.7852 28.9012 36.932L35.6939 27.7372C37.3573 25.4875 37.3055 22.263 35.5702 20.0766C35.5702 20.0766 25.599 7.47877 25.5814 7.45521C23.5209 4.85206 19.7429 4.54077 17.3161 6.7545C13.6876 10.072 10.0592 13.3895 6.43078 16.707C0.354329 22.2593 -1.65427 31.1043 1.43226 38.7179C6.44256 51.0788 14.4699 63.2736 24.6448 73.9838C34.8362 84.7152 46.4567 93.1956 58.2514 98.511C65.513 101.785 74.0504 99.4945 79.1915 93.2613C79.1915 93.2613 88.5877 81.8664 88.5995 81.8528C90.72 79.2819 90.3913 75.2724 87.8927 73.1194C87.8927 73.1194 77.1381 63.8577 77.1381 63.8552ZM19.3918 9.27084C20.4391 8.31342 22.1992 8.39279 23.1487 9.58957L33.1386 22.211C33.928 23.2043 33.9503 24.669 33.1964 25.6934L29.8047 30.2821L15.9955 12.3763C15.9955 12.3763 19.373 9.28945 19.3918 9.27084ZM76.8 91.0761C72.4223 96.3828 65.4694 98.1402 59.4966 95.4477C48.0706 90.2972 36.793 82.0612 26.8831 71.6275C16.9909 61.2148 9.19569 49.3835 4.34207 37.4119C1.79981 31.1329 3.47031 23.8232 8.50535 19.2233L13.6052 14.5615L27.8103 32.982L26.4037 34.8857C25.0206 36.7584 24.7838 39.3144 25.8017 41.3991C28.2791 46.4789 33.4025 54.374 38.3963 59.6311C39.8571 61.169 47.5794 69.0541 56.1062 73.1678C57.8721 74.0185 59.9125 73.9069 61.5547 72.8701L64.1971 71.2008L81.2178 85.7209L76.8 91.0761ZM86.2092 79.6701L83.2959 83.2009L67.0881 69.3753L72.1161 66.1992C73.0656 65.5977 74.2778 65.6994 75.1354 66.4373C75.1354 66.4373 85.8629 75.6754 85.8888 75.6978C87.0315 76.6812 87.1752 78.4969 86.2092 79.6701Z" fill="#FF6F71"/>
</svg>
