<svg width="100" height="100" viewBox="0 0 100 100" fill="none" xmlns="http://www.w3.org/2000/svg">
<path d="M78.1308 67.8975C76.9216 67.8975 75.7051 67.4893 74.6851 66.6729L65.4488 59.3067C64.7423 58.7434 64.617 57.7049 65.1655 56.9791C65.7068 56.2533 66.7208 56.123 67.42 56.6813L76.6563 64.0463C77.6269 64.8242 79.0326 64.7212 79.8766 63.8329C80.4239 63.2485 80.6639 62.5748 80.6192 61.8613C80.5819 61.1554 80.2479 60.5003 79.6994 60.0524L77.5075 58.2893C74.0112 55.4555 67.2947 50.0422 61.3786 45.4577C61.334 45.4255 61.2834 45.3932 61.24 45.3597C54.1015 39.8236 52.0157 38.4935 51.4045 38.1895C50.012 38.3583 48.1794 40.1412 46.547 41.7231C44.4046 43.8113 42.1875 45.9627 39.7111 45.9627C35.2443 45.9627 32.7052 42.6562 32.5979 42.5135C32.1193 41.8844 32.1506 40.9973 32.6618 40.3943C33.5178 39.4017 34.7717 37.5406 35.9821 35.7379C38.3692 32.1782 39.9124 29.961 41.1422 29.1248C42.5275 28.1719 45.8924 26.7265 49.6286 25.8046C52.0603 25.2016 54.3595 24.8976 56.4512 24.8976C60.1754 24.8976 65.7756 27.1731 70.715 29.1769C73.4373 30.2849 76.5177 31.5368 77.4195 31.5368H86C86.8885 31.5368 87.6131 32.2824 87.6131 33.1969C87.6131 34.1113 86.8885 34.8569 86 34.8569H77.4195C75.9703 34.8569 73.6013 33.9227 69.5311 32.27C65.0896 30.4611 59.5642 28.2166 56.4512 28.2166C54.6368 28.2166 52.539 28.502 50.3785 29.0342C46.8436 29.9027 43.8946 31.2253 42.9241 31.8867C42.1187 32.4375 40.1017 35.4339 38.6345 37.625C37.7206 38.9873 36.8381 40.2963 36.0568 41.3534C36.8321 41.9564 38.0739 42.6437 39.7111 42.6437C40.9023 42.6437 42.7228 40.8732 44.3299 39.3112C46.5856 37.1188 48.9161 34.8569 51.6131 34.8569C52.3497 34.8569 53.049 34.8569 63.0545 42.6115C63.1051 42.6437 63.1485 42.676 63.1931 42.7083C69.1658 47.3312 75.9703 52.8165 79.498 55.6763L81.7031 57.4456C82.9762 58.4965 83.7442 60.0263 83.8334 61.6541C83.9468 63.282 83.3729 64.9024 82.2456 66.0761C81.1111 67.2883 79.6246 67.8975 78.1308 67.8975Z" fill="#FFC955"/>
<path d="M71.9758 74.064C70.722 74.064 69.4681 73.6422 68.4349 72.7873L59.6712 65.5055C58.984 64.9286 58.8707 63.8851 59.4313 63.1717C59.9919 62.4645 61.0058 62.3478 61.6991 62.9248L70.4628 70.2004C71.402 70.9783 72.7571 70.92 73.6324 70.0825L73.9663 69.7587C74.4823 69.2599 74.7669 68.5527 74.7355 67.8269C74.6969 67.0936 74.357 66.4261 73.7963 65.972L73.5564 65.7847C72.8511 65.2201 72.7185 64.1829 73.261 63.4571C73.8084 62.7238 74.8163 62.5948 75.5228 63.1518L75.7687 63.3466C77.0853 64.3963 77.8786 65.972 77.9545 67.6706C78.0305 69.3766 77.3807 71.0168 76.1714 72.1843L75.8375 72.5019C74.7596 73.5392 73.3683 74.064 71.9758 74.064Z" fill="#FFC955"/>
<path d="M64.1953 79.0892C62.8969 79.0892 61.5924 78.6165 60.535 77.6822L52.08 70.2515C51.3988 69.6559 51.3228 68.605 51.8967 67.9115C52.4766 67.2105 53.4966 67.1335 54.1705 67.7229L62.6268 75.1598C63.5455 75.9638 64.8693 75.9638 65.7831 75.1474L66.3124 74.6734C66.8417 74.2069 67.1371 73.5258 67.125 72.8061C67.1117 72.0927 66.7971 71.419 66.2558 70.9711C65.5625 70.3942 65.4492 69.3507 66.0098 68.6373C66.5704 67.9239 67.5844 67.8073 68.2776 68.3916C69.5688 69.4549 70.3187 71.0431 70.3501 72.7553C70.3754 74.4538 69.6761 76.0742 68.4223 77.1896L67.893 77.6623C66.8224 78.609 65.5119 79.0892 64.1953 79.0892Z" fill="#FFC955"/>
<path d="M57.1444 82.9862C56.0292 82.9862 54.908 82.6487 53.9435 81.975L48.8594 78.3694C48.1288 77.8508 47.9395 76.8136 48.4434 76.0617C48.9474 75.3024 49.9553 75.115 50.6871 75.6336L55.7712 79.238C56.6598 79.8608 57.857 79.8087 58.6816 79.1089C59.1229 78.733 59.3809 78.1821 59.3869 77.5915C59.3869 77.0208 59.1349 76.4699 58.7069 76.0878L58.2536 75.6858C57.5797 75.089 57.5037 74.0443 58.0836 73.3507C58.6623 72.6509 59.6835 72.5728 60.3514 73.1696L60.8047 73.5654C61.9513 74.5765 62.6132 76.0543 62.6132 77.6176C62.5878 79.2057 61.9079 80.6772 60.73 81.6698C59.7028 82.5445 58.4236 82.9862 57.1444 82.9862Z" fill="#FFC955"/>
<path d="M62.2289 45.6969H62.2108C61.3162 45.6969 60.5977 44.9513 60.5977 44.0368C60.5977 43.1162 61.3162 42.378 62.2108 42.378C63.0981 42.378 63.8299 43.1162 63.8299 44.0368C63.8299 44.9513 63.1174 45.6969 62.2289 45.6969Z" fill="#FFC955"/>
<path d="M21.8377 67.898C20.3632 67.898 18.8947 67.2951 17.8049 66.135C16.627 64.9029 16.0531 63.2825 16.1664 61.6349C16.2556 60.0207 17.0236 58.4971 18.2835 57.4598L21.0878 55.1967C21.3904 54.9436 21.7678 54.7947 22.1463 54.7947C23.0349 54.7947 23.7594 55.5342 23.7594 56.4548C23.7594 57.0119 23.4882 57.5119 23.0662 57.8159L20.2872 60.0666C19.7519 60.5008 19.424 61.1559 19.3866 61.8421C19.336 62.5753 19.5759 63.249 20.0546 63.7553C20.9178 64.6697 22.1644 64.8186 23.1229 64.1895C23.7522 63.6771 24.6661 63.723 25.252 64.326C25.8826 64.9749 25.8826 66.0245 25.252 66.6734C25.1954 66.7318 25.1134 66.8025 25.0374 66.8608C25.0061 66.8806 24.9747 66.9067 24.9434 66.9328C23.9982 67.5804 22.9143 67.898 21.8377 67.898Z" fill="#FFC955"/>
<path d="M24.0483 67.2042C23.6384 67.2042 23.2225 67.0491 22.9078 66.7253C22.2773 66.0702 22.2773 65.0193 22.9078 64.3717C22.9645 64.3133 23.0464 64.2476 23.1224 64.1893L25.9074 61.9336C26.4427 61.4994 26.7694 60.8443 26.808 60.1569C26.8586 59.4236 26.6187 58.7499 26.1401 58.2437C25.2769 57.3293 24.017 57.1804 23.0657 57.8157C22.5871 58.199 21.9119 58.2834 21.3332 57.972C20.5387 57.5439 20.2361 56.5452 20.6521 55.735C20.7847 55.462 20.9993 55.2349 21.2513 55.0737V55.0674C23.4998 53.524 26.4994 53.854 28.3825 55.864C29.5604 57.096 30.1404 58.7177 30.027 60.3641C29.939 61.9783 29.1698 63.5019 27.9099 64.5391L25.1069 66.8022C25.0815 66.8221 25.0623 66.8419 25.0442 66.8543C24.7476 67.0876 24.4016 67.2042 24.0483 67.2042Z" fill="#FFC955"/>
<path d="M22.5801 34.8569H13.9996C13.105 34.8569 12.3865 34.1113 12.3865 33.1969C12.3865 32.2824 13.105 31.5368 13.9996 31.5368H22.5801C23.4819 31.5368 26.5622 30.2849 29.2845 29.1769C34.224 27.1731 39.8241 24.8976 43.5483 24.8976C45.6401 24.8976 47.9392 25.2016 50.3782 25.8046C51.2402 26.0193 51.7767 26.92 51.5682 27.8084C51.3608 28.6967 50.4783 29.2476 49.6211 29.0342C47.4606 28.502 45.3628 28.2166 43.5483 28.2166C40.4354 28.2166 34.91 30.4611 30.4685 32.27C26.3983 33.9227 24.0292 34.8569 22.5801 34.8569Z" fill="#FFC955"/>
<path d="M28.0175 74.0581C26.619 74.0581 25.2326 73.5333 24.1559 72.5023L23.822 72.1772C22.6115 71.0233 21.9569 69.3707 22.0509 67.6647C22.1208 66.1932 22.7188 64.806 23.746 63.7812L24.4139 63.1981C25.1011 62.6075 26.1211 62.7055 26.6889 63.4053C27.2616 64.105 27.1676 65.1559 26.4864 65.7391L25.9077 66.2391C25.5605 66.5952 25.3025 67.192 25.2711 67.8334C25.2326 68.5667 25.5098 69.2603 26.0331 69.759L26.367 70.0903C27.2363 70.9203 28.5975 70.9712 29.5366 70.1933L33.3223 67.0493C33.3356 67.0356 33.3862 66.9972 33.4356 66.9649C33.4549 66.9451 33.4802 66.9264 33.4995 66.9066L33.7383 66.7255C34.2736 66.1349 35.1561 66.0182 35.824 66.4785C36.5606 66.991 36.7559 68.0282 36.252 68.7863C36.1772 68.9029 36.006 69.0977 35.8999 69.1883C35.8686 69.2143 35.7926 69.2925 35.7541 69.3186L35.5021 69.5134C35.4587 69.5456 35.4201 69.5779 35.3827 69.6039L31.5645 72.7802C30.5253 73.6363 29.2714 74.0581 28.0175 74.0581Z" fill="#FFC955"/>
<path d="M34.4004 69.9281C33.8771 69.9281 33.3732 69.6886 33.0645 69.2345C32.5666 68.4888 32.686 67.5037 33.4045 66.9776C33.4178 66.9714 33.5432 66.8809 33.5625 66.8672L33.6565 66.8027C33.6758 66.7841 33.7011 66.7642 33.7264 66.7444C33.7445 66.7183 33.7698 66.6923 33.7891 66.6662C34.2364 66.2257 34.5077 65.6103 34.533 64.9875C34.5704 64.248 34.2991 63.5545 33.7638 63.0358L33.4359 62.7182C32.5726 61.882 31.1994 61.8361 30.2675 62.6078L25.9079 66.2394C25.2268 66.8287 24.2068 66.7382 23.6329 66.031C23.059 65.3312 23.1543 64.2803 23.8343 63.6909L24.4142 63.1984L28.2444 60.0209C30.4242 58.2181 33.6131 58.3422 35.6482 60.3062L35.9822 60.6239C37.1974 61.8038 37.8461 63.4577 37.7581 65.1562C37.6893 66.6153 37.0841 67.9963 36.0509 69.0335C36.0002 69.098 35.9436 69.1501 35.9002 69.1886C35.8749 69.2147 35.7929 69.2866 35.7615 69.3127L35.3456 69.6365C35.055 69.8313 34.7283 69.9281 34.4004 69.9281Z" fill="#FFC955"/>
<path d="M35.7986 79.0834C34.4881 79.0834 33.1776 78.6032 32.107 77.6565L31.5898 77.2099C30.3239 76.0746 29.6246 74.4542 29.6427 72.7619C29.6933 71.0298 30.4492 69.4479 31.7284 68.392C32.4277 67.8076 33.4356 67.9243 33.9962 68.6377C34.558 69.3511 34.4435 70.402 33.7515 70.9715C33.215 71.4256 32.8882 72.1006 32.8689 72.8326C32.8629 73.5262 33.1583 74.2135 33.6876 74.6875L34.2048 75.1341C35.1307 75.958 36.4545 75.958 37.3732 75.154L41.3373 71.6725C41.418 71.6005 41.5 71.5298 41.5699 71.4579C42.1993 70.8102 43.2205 70.8102 43.851 71.4579C44.4803 72.113 44.4803 73.1639 43.851 73.8115C43.7244 73.9418 43.5797 74.0708 43.4278 74.2011L39.4649 77.6826C38.4004 78.6168 37.1031 79.0834 35.7986 79.0834Z" fill="#FFC955"/>
<path d="M42.3886 74.5967C41.9292 74.5967 41.4747 74.3958 41.154 74.0062C40.5802 73.3064 40.6621 72.2617 41.3433 71.6662C41.4181 71.6004 41.5 71.5297 41.57 71.4577C41.9859 71.0297 42.2319 70.4267 42.2439 69.8051C42.2499 69.0979 41.9473 68.4105 41.4374 67.9564L40.8888 67.4638C40.0015 66.666 38.6463 66.666 37.7397 67.4576L33.7889 70.9391C33.1149 71.5359 32.0937 71.4577 31.5138 70.7641C30.9351 70.0644 31.0171 69.0197 31.6911 68.4241L35.6407 64.9352C37.7578 63.0816 40.9274 63.094 43.0131 64.9613L43.5484 65.4414C44.789 66.537 45.4955 68.145 45.4702 69.8572C45.4449 71.3349 44.8529 72.7741 43.851 73.8114C43.7244 73.9416 43.5798 74.0707 43.4278 74.201C43.1264 74.4603 42.7539 74.5967 42.3886 74.5967Z" fill="#FFC955"/>
<path d="M42.8552 82.9862C41.57 82.9862 40.2908 82.5383 39.2636 81.6636C38.0918 80.6772 37.4118 79.2119 37.3865 77.6374C37.3865 76.0543 38.0484 74.5765 39.1949 73.5654L39.6482 73.1696C40.3222 72.5728 41.3433 72.6509 41.916 73.3507C42.4959 74.0443 42.42 75.089 41.746 75.6858L41.2927 76.0878C40.8575 76.4699 40.6127 77.027 40.6127 77.6176C40.6188 78.1821 40.8768 78.733 41.312 79.1027C42.1499 79.8087 43.3471 79.8546 44.2344 79.2318L47.826 76.6833C48.5506 76.1585 49.5585 76.3471 50.0685 77.1051C50.5736 77.857 50.3904 78.8881 49.6598 79.4129L46.0622 81.9676C45.0977 82.6487 43.9704 82.9862 42.8552 82.9862Z" fill="#FFC955"/>
<path d="M48.7396 79.705C48.2863 79.705 47.8318 79.5102 47.5171 79.1207C46.9372 78.4271 47.0131 77.3774 47.6931 76.7869L48.1404 76.3849C48.5756 76.0027 48.8216 75.4444 48.8216 74.8414C48.8156 74.2843 48.5563 73.7396 48.1223 73.3699C47.2904 72.6627 46.0933 72.6118 45.2047 73.2396L41.6071 75.7943C40.8765 76.3067 39.8686 76.1193 39.3646 75.3675C38.8607 74.6143 39.0427 73.5833 39.7746 73.0647L43.3709 70.5038C45.4507 69.0447 48.2417 69.1688 50.1695 70.8028C51.3413 71.7942 52.0213 73.2533 52.0466 74.8153C52.0466 76.4109 51.386 77.8961 50.2454 78.9073L49.7921 79.303C49.4823 79.5748 49.1109 79.705 48.7396 79.705Z" fill="#FFC955"/>
<path d="M21.4969 58.6457C21.1569 58.6457 20.8109 58.529 20.5143 58.2958C19.551 57.5377 17.7546 56.7201 11.7313 56.4992C10.844 56.4669 10.1447 55.6952 10.1821 54.782C10.2134 53.8676 10.9887 53.1344 11.8459 53.1803C17.4339 53.3875 20.5143 54.1071 22.4867 55.6704C23.192 56.2275 23.3246 57.2709 22.7761 57.998C22.4614 58.4186 21.9828 58.6457 21.4969 58.6457Z" fill="#FFC955"/>
<path d="M78.5032 58.6461C78.0173 58.6461 77.5387 58.4191 77.224 57.9985C76.6755 57.2714 76.8081 56.228 77.5134 55.6709C79.4858 54.1076 82.5662 53.388 88.1542 53.1808C89.0307 53.141 89.7867 53.8681 89.824 54.7825C89.8554 55.6957 89.1561 56.4674 88.2688 56.4997C82.2455 56.7205 80.4491 57.5382 79.4858 58.2963C79.1892 58.5295 78.8432 58.6461 78.5032 58.6461Z" fill="#FFC955"/>
<path d="M98.387 61.4148H88.7094C87.8848 61.4148 87.1915 60.7721 87.1095 59.9297L83.8833 28.3929C83.8339 27.9251 83.9785 27.4586 84.2872 27.1087C84.5898 26.7589 85.0298 26.5579 85.4844 26.5579H98.387C99.2755 26.5579 100 27.3035 100 28.2167C100 29.1311 99.2755 29.8768 98.387 29.8768H87.2735L90.1658 58.0946H98.387C99.2755 58.0946 100 58.8403 100 59.7547C100 60.6691 99.2755 61.4148 98.387 61.4148Z" fill="#FFC955"/>
<path d="M11.2907 61.4148H1.61313C0.724582 61.4148 0 60.6691 0 59.7547C0 58.8403 0.724582 58.0946 1.61313 58.0946H9.84154L12.7266 29.8768H1.61313C0.724582 29.8768 0 29.1311 0 28.2167C0 27.3035 0.724582 26.5579 1.61313 26.5579H14.5158C14.9703 26.5579 15.4103 26.7589 15.7129 27.1087C16.0216 27.4586 16.1663 27.9251 16.1168 28.3929L12.8906 59.9297C12.8086 60.7721 12.1154 61.4148 11.2907 61.4148Z" fill="#FFC955"/>
<mask id="mask0_1_115" style="mask-type:luminance" maskUnits="userSpaceOnUse" x="48" y="0" width="4" height="11">
<path d="M48.1472 0H51.8509V10.1367H48.1472V0Z" fill="white"/>
</mask>
<g mask="url(#mask0_1_115)">
<path d="M49.9998 9.95955C49.1112 9.95955 48.3866 9.21387 48.3866 8.29946V1.66034C48.3866 0.74592 49.1112 0.000244141 49.9998 0.000244141C50.8883 0.000244141 51.6129 0.74592 51.6129 1.66034V8.29946C51.6129 9.21387 50.8883 9.95955 49.9998 9.95955Z" fill="#FFC955"/>
</g>
<mask id="mask1_1_115" style="mask-type:luminance" maskUnits="userSpaceOnUse" x="48" y="89" width="4" height="11">
<path d="M48.1472 89.8087H51.8509V100H48.1472V89.8087Z" fill="white"/>
</mask>
<g mask="url(#mask1_1_115)">
<path d="M49.9996 100C49.1111 100 48.3865 99.2546 48.3865 98.3401V91.701C48.3865 90.7866 49.1111 90.0409 49.9996 90.0409C50.8882 90.0409 51.6127 90.7866 51.6127 91.701V98.3401C51.6127 99.2546 50.8882 100 49.9996 100Z" fill="#FFC955"/>
</g>
<path d="M70.9668 15.7422C70.6907 15.7422 70.4134 15.6715 70.1615 15.5151C69.3923 15.061 69.121 14.0436 69.5683 13.2521L72.7946 7.5013C73.2418 6.70352 74.2305 6.4318 74.9996 6.89211C75.7688 7.35242 76.0389 8.36361 75.5916 9.16139L72.3666 14.9122C72.0639 15.4444 71.5214 15.7422 70.9668 15.7422Z" fill="#FFC955"/>
<path d="M25.8062 96.2387C25.5289 96.2387 25.2517 96.168 24.9997 96.0191C24.2305 95.5588 23.9604 94.5464 24.4077 93.7498L27.6328 87.9978C28.0801 87.2075 29.0699 86.9345 29.8379 87.3886C30.607 87.849 30.8783 88.8676 30.431 89.6579L27.2048 95.4087C26.9022 95.941 26.3608 96.2387 25.8062 96.2387Z" fill="#FFC955"/>
<path d="M74.1931 96.2387C73.6385 96.2387 73.0972 95.941 72.7946 95.4087L69.5683 89.6579C69.121 88.8676 69.3923 87.849 70.1615 87.3886C70.9295 86.9345 71.9193 87.2075 72.3666 87.9978L75.5916 93.7498C76.0389 94.5464 75.7688 95.5588 74.9996 96.0191C74.7477 96.168 74.4704 96.2387 74.1931 96.2387Z" fill="#FFC955"/>
<path d="M29.0325 15.7422C28.4779 15.7422 27.9354 15.4444 27.6328 14.9122L24.4077 9.16139C23.9604 8.36361 24.2305 7.35242 24.9997 6.89211C25.7689 6.4318 26.7575 6.70352 27.2048 7.5013L30.431 13.2521C30.8783 14.0436 30.607 15.061 29.8379 15.5151C29.5859 15.6715 29.3086 15.7422 29.0325 15.7422Z" fill="#FFC955"/>
</svg>
