<svg width="19" height="19" viewBox="0 0 19 19" fill="none" xmlns="http://www.w3.org/2000/svg">
<path d="M9.49999 3.16663C10.3398 3.16663 11.1453 3.50026 11.7392 4.09412C12.333 4.68799 12.6667 5.49344 12.6667 6.33329C12.6667 7.17314 12.333 7.9786 11.7392 8.57246C11.1453 9.16633 10.3398 9.49996 9.49999 9.49996C8.66014 9.49996 7.85468 9.16633 7.26082 8.57246C6.66695 7.9786 6.33332 7.17314 6.33332 6.33329C6.33332 5.49344 6.66695 4.68799 7.26082 4.09412C7.85468 3.50026 8.66014 3.16663 9.49999 3.16663ZM9.49999 11.0833C12.9992 11.0833 15.8333 12.5004 15.8333 14.25V15.8333H3.16666V14.25C3.16666 12.5004 6.00082 11.0833 9.49999 11.0833Z" fill="white"/>
</svg>
