<svg width="60" height="60" viewBox="0 0 60 60" fill="none" xmlns="http://www.w3.org/2000/svg">
<path d="M7.67432 41.8452C7.67432 38.6117 10.2907 35.9952 13.5243 35.9952C16.7571 35.9952 19.3743 38.6169 19.3743 41.8452C19.3743 45.0788 16.7579 47.6952 13.5243 47.6952C10.2907 47.6952 7.67432 45.0788 7.67432 41.8452ZM9.60032 41.8452C9.60032 44.0153 11.3555 45.7752 13.5243 45.7752C15.6967 45.7752 17.4543 44.0177 17.4543 41.8452C17.4543 39.6764 15.6943 37.9212 13.5243 37.9212C11.3579 37.9212 9.60032 39.6788 9.60032 41.8452Z" stroke="white" stroke-width="3"/>
<path d="M40.824 30.5042C40.4727 30.5042 40.1666 30.507 39.9 30.5118V18.6002H53.0745L53.1765 18.7562H53.1H46.8H45.3V20.2562V28.6562V30.1562H46.8H55.2H56.7V28.6562V24.1456L56.85 24.375V33.4562H51C50.3014 33.4562 49.6418 33.6121 49.0512 33.8873C47.516 32.1633 44.9435 30.5042 40.824 30.5042Z" stroke="white" stroke-width="3"/>
<path d="M3.75013 19.8069H2.10013V18.6069H31.3141H32.2769L32.6778 17.7316L35.1629 12.3069H54.8768L54.0042 13.5069H36.2941H34.7941V15.0069V31.49C32.8378 32.5198 31.6243 34.2502 30.904 35.6751C30.5307 36.4135 30.2695 37.1087 30.0932 37.6569H24.3664C23.5107 35.6377 21.9477 33.9806 20.1768 32.6402C18.0826 31.0552 15.5668 29.8131 13.1913 28.8637C10.8064 27.9106 8.50509 27.23 6.80492 26.7879C6.18239 26.626 5.63808 26.4955 5.19691 26.3949L5.25005 21.3226L5.26592 19.8069H3.75013Z" stroke="white" stroke-width="3"/>
<path d="M51.4501 38.5569H57.9001V39.7569H51.4501V38.5569Z" stroke="white" stroke-width="3"/>
<path d="M40.824 35.9952C37.5904 35.9952 34.974 38.6117 34.974 41.8452C34.974 45.0788 37.5904 47.6952 40.824 47.6952C44.0575 47.6952 46.674 45.0788 46.674 41.8452C46.674 41.8472 46.6741 41.8421 46.6708 41.7881L46.6703 41.7793C46.6679 41.7411 46.6633 41.6678 46.6622 41.586C46.6413 41.0609 46.5592 40.5696 46.4175 40.1122L40.824 35.9952ZM40.824 35.9952C43.4533 35.9952 45.6763 37.7266 46.4174 40.1119L40.824 35.9952ZM36.9 41.8452C36.9 44.0153 38.6551 45.7752 40.824 45.7752C42.9964 45.7752 44.754 44.0177 44.754 41.8452C44.754 39.6764 42.994 37.9212 40.824 37.9212C38.6575 37.9212 36.9 39.6788 36.9 41.8452Z" stroke="white" stroke-width="3"/>
</svg>
